<svg xmlns="http://www.w3.org/2000/svg" fill="none" viewBox="-1 -1 24 24" id="Ac-Heat--Streamline-Ultimate.svg" height="24" width="24"><desc>Ac Heat Streamline Icon: https://streamlinehq.com</desc><path stroke="#000000" stroke-linecap="round" stroke-linejoin="round" d="M2.0625 11.6875c-0.3646683333333333 0 -0.7144133333333333 -0.14483333333333334 -0.9722716666666665 -0.40269166666666667C0.8323654166666666 11.02695 0.6875 10.67715 0.6875 10.3125v-6.875c0 -0.7293458333333332 0.2897308333333333 -1.4288175 0.8054566666666666 -1.944543333333333C2.0086825 0.9772308333333334 2.708154166666666 0.6875 3.4375 0.6875h15.125c0.7293 0 1.4288083333333332 0.2897308333333333 1.944525 0.8054566666666666 0.5157166666666666 0.5157258333333333 0.805475 1.2151975 0.805475 1.944543333333333v6.875c0 0.36465 -0.14483333333333334 0.7144499999999999 -0.40269166666666667 0.9723083333333332s-0.6076583333333333 0.40269166666666667 -0.9723083333333332 0.40269166666666667" stroke-width="2"></path><path stroke="#000000" stroke-linecap="round" stroke-linejoin="round" d="M0.6875 8.9375h20.625" stroke-width="2"></path><path stroke="#000000" d="M17.875 4.46875c-0.18984166666666666 0 -0.34375 -0.15389916666666667 -0.34375 -0.34375s0.1539083333333333 -0.34375 0.34375 -0.34375" stroke-width="2"></path><path stroke="#000000" d="M17.875 4.46875c0.18984166666666666 0 0.34375 -0.15389916666666667 0.34375 -0.34375s-0.1539083333333333 -0.34375 -0.34375 -0.34375" stroke-width="2"></path><path stroke="#000000" stroke-linecap="round" stroke-linejoin="round" d="M4.8125 13.0625v2.75c0 0.7293 -0.2897308333333333 1.4288083333333332 -0.8054566666666666 1.944525 -0.5157258333333333 0.5157166666666666 -1.2151975 0.805475 -1.944543333333333 0.805475" stroke-width="2"></path><path stroke="#000000" stroke-linecap="round" stroke-linejoin="round" d="M8.9375 13.0625v6.875c0 0.36465 -0.14487 0.7144499999999999 -0.4027283333333333 0.9723083333333332S7.9271683333333325 21.3125 7.5625 21.3125" stroke-width="2"></path><path stroke="#000000" stroke-linecap="round" stroke-linejoin="round" d="M17.1875 13.0625v2.75c0 0.7293 0.28975833333333334 1.4288083333333332 0.805475 1.944525 0.5157166666666666 0.5157166666666666 1.215225 0.805475 1.944525 0.805475" stroke-width="2"></path><path stroke="#000000" stroke-linecap="round" stroke-linejoin="round" d="M13.0625 13.0625v6.875c0 0.36465 0.14483333333333334 0.7144499999999999 0.40269166666666667 0.9723083333333332s0.6076583333333333 0.40269166666666667 0.9723083333333332 0.40269166666666667" stroke-width="2"></path></svg>