<svg xmlns="http://www.w3.org/2000/svg" viewBox="0 0 48 48" id="Ac-Cool--Streamline-Ultimate.svg" height="48" width="48"><desc>Ac Cool Streamline Icon: https://streamlinehq.com</desc><defs></defs><title>ac-cool</title><path d="M3 3h42s2 0 2 2v18s0 2 -2 2h-42s-2 0 -2 -2v-18s0 -2 2 -2" fill="none" stroke="#000000" stroke-linecap="round" stroke-linejoin="round" stroke-width="1"></path><path d="M5 25v-2a2 2 0 0 1 2 -2h34a2 2 0 0 1 2 2v2" fill="none" stroke="#000000" stroke-linecap="round" stroke-linejoin="round" stroke-width="1"></path><path d="m7 9 34 0" fill="none" stroke="#000000" stroke-linecap="round" stroke-linejoin="round" stroke-width="1"></path><path d="m7 15 34 0" fill="none" stroke="#000000" stroke-linecap="round" stroke-linejoin="round" stroke-width="1"></path><path d="M8 29a6.982 6.982 0 0 0 -2 4 6.982 6.982 0 0 0 2 4" fill="none" stroke="#000000" stroke-linecap="round" stroke-linejoin="round" stroke-width="1"></path><path d="M8 45a6.982 6.982 0 0 0 2 -4 6.982 6.982 0 0 0 -2 -4" fill="none" stroke="#000000" stroke-linecap="round" stroke-linejoin="round" stroke-width="1"></path><path d="M40 29a6.982 6.982 0 0 0 -2 4 6.982 6.982 0 0 0 2 4" fill="none" stroke="#000000" stroke-linecap="round" stroke-linejoin="round" stroke-width="1"></path><path d="M40 45a6.982 6.982 0 0 0 2 -4 6.982 6.982 0 0 0 -2 -4" fill="none" stroke="#000000" stroke-linecap="round" stroke-linejoin="round" stroke-width="1"></path><path d="m24 31 0 12" fill="none" stroke="#000000" stroke-linecap="round" stroke-linejoin="round" stroke-width="1"></path><path d="m18.804 34 10.392 6" fill="none" stroke="#000000" stroke-linecap="round" stroke-linejoin="round" stroke-width="1"></path><path d="m29.196 34 -10.392 6" fill="none" stroke="#000000" stroke-linecap="round" stroke-linejoin="round" stroke-width="1"></path></svg>