<svg width="42" height="42" viewBox="0 0 42 42" fill="none" xmlns="http://www.w3.org/2000/svg">
<g clip-path="url(#clip0_69_100)">
<path d="M34.0778 7.875H37.625L41.125 28.875H0.875L4.375 7.875H8.3615" stroke="black" stroke-linecap="round" stroke-linejoin="round"/>
<path d="M41.125 28.875V36.75C41.125 37.4462 40.8484 38.1139 40.3562 38.6062C39.8639 39.0984 39.1962 39.375 38.5 39.375H3.5C2.80381 39.375 2.13613 39.0984 1.64384 38.6062C1.15156 38.1139 0.875 37.4462 0.875 36.75V28.875" stroke="black" stroke-linecap="round" stroke-linejoin="round"/>
<path d="M3.20801 14.875H38.7925" stroke="black" stroke-linecap="round" stroke-linejoin="round"/>
<path d="M18.466 10.5175C18.4614 10.7466 18.3672 10.9646 18.2036 11.125C18.04 11.2853 17.82 11.3751 17.591 11.375H8.87947C8.75366 11.3762 8.62907 11.3503 8.51419 11.299C8.39932 11.2477 8.29686 11.1722 8.21381 11.0777C8.13076 10.9831 8.06906 10.8718 8.03294 10.7513C7.99681 10.6308 7.9871 10.5039 8.00447 10.3793L8.49097 6.87929C8.5203 6.66873 8.62528 6.47605 8.78631 6.33724C8.94733 6.19844 9.15339 6.12301 9.36597 6.12504H17.6645C17.7809 6.12502 17.8961 6.14822 18.0034 6.19328C18.1107 6.23834 18.208 6.30436 18.2895 6.38748C18.3709 6.47059 18.435 6.56913 18.478 6.67732C18.5209 6.7855 18.5418 6.90117 18.5395 7.01754L18.466 10.5175Z" stroke="black" stroke-linecap="round" stroke-linejoin="round"/>
<path d="M23.9748 10.5175C23.9794 10.7465 24.0736 10.9646 24.2372 11.125C24.4008 11.2853 24.6208 11.3751 24.8498 11.375H33.5596C33.6854 11.3762 33.81 11.3503 33.9249 11.299C34.0397 11.2476 34.1422 11.1722 34.2253 11.0776C34.3083 10.9831 34.37 10.8718 34.4061 10.7513C34.4422 10.6308 34.452 10.5039 34.4346 10.3793L33.9481 6.87928C33.9188 6.66902 33.8141 6.47658 33.6534 6.33781C33.4928 6.19904 33.2871 6.12342 33.0748 6.12503H24.7746C24.6582 6.125 24.543 6.1482 24.4356 6.19326C24.3283 6.23833 24.2311 6.30435 24.1496 6.38746C24.0681 6.47058 24.004 6.56911 23.9611 6.6773C23.9182 6.78549 23.8973 6.90115 23.8996 7.01752L23.9748 10.5175Z" stroke="black" stroke-linecap="round" stroke-linejoin="round"/>
<path d="M4.375 7.875V3.5C4.375 2.80381 4.65156 2.13613 5.14384 1.64384C5.63613 1.15156 6.30381 0.875 7 0.875H35C35.6962 0.875 36.3639 1.15156 36.8562 1.64384C37.3484 2.13613 37.625 2.80381 37.625 3.5V7.875" stroke="black" stroke-linecap="round" stroke-linejoin="round"/>
<path d="M6.125 39.375V41.125" stroke="black" stroke-linecap="round" stroke-linejoin="round"/>
<path d="M35.875 39.375V41.125" stroke="black" stroke-linecap="round" stroke-linejoin="round"/>
<path d="M18.5586 8.07446H23.8821" stroke="black" stroke-linecap="round" stroke-linejoin="round"/>
</g>
<defs>
<clipPath id="clip0_69_100">
<rect width="42" height="42" fill="white"/>
</clipPath>
</defs>
</svg>
