<svg width="42" height="42" viewBox="0 0 42 42" fill="none" xmlns="http://www.w3.org/2000/svg">
<path d="M36.75 18.25V5.25C36.75 3.317 35.1831 1.75 33.25 1.75H5.25C3.317 1.75 1.75 3.317 1.75 5.25V36.75C1.75 38.6831 3.317 40.25 5.25 40.25H21.1381" stroke="black" stroke-linecap="round" stroke-linejoin="round"/>
<path d="M22.75 31.5C22.75 32.6491 22.9763 33.7869 23.4161 34.8485C23.8558 35.9101 24.5003 36.8747 25.3128 37.6872C26.1253 38.4997 27.0899 39.1442 28.1515 39.5839C29.2131 40.0237 30.3509 40.25 31.5 40.25C32.6491 40.25 33.7869 40.0237 34.8485 39.5839C35.9101 39.1442 36.8747 38.4997 37.6872 37.6872C38.4997 36.8747 39.1442 35.9101 39.5839 34.8485C40.0237 33.7869 40.25 32.6491 40.25 31.5C40.25 30.3509 40.0237 29.2131 39.5839 28.1515C39.1442 27.0899 38.4997 26.1253 37.6872 25.3128C36.8747 24.5003 35.9101 23.8558 34.8485 23.4161C33.7869 22.9763 32.6491 22.75 31.5 22.75C30.3509 22.75 29.2131 22.9763 28.1515 23.4161C27.0899 23.8558 26.1253 24.5003 25.3128 25.3128C24.5003 26.1253 23.8558 27.0899 23.4161 28.1515C22.9763 29.2131 22.75 30.3509 22.75 31.5Z" stroke="black" stroke-linecap="round" stroke-linejoin="round"/>
<path d="M35 31.5C35 33.4331 33.4331 35 31.5 35C29.5669 35 28 33.4331 28 31.5C28 29.5669 29.5669 28 31.5 28" stroke="black" stroke-linecap="round" stroke-linejoin="round"/>
<path d="M1.75 12.25H36.75" stroke="black" stroke-linecap="round" stroke-linejoin="round"/>
<path d="M15.75 17.5H22.75" stroke="black" stroke-linecap="round" stroke-linejoin="round"/>
<path d="M7.875 7.43701C7.63338 7.43701 7.4375 7.24113 7.4375 6.99951C7.4375 6.75787 7.63338 6.56201 7.875 6.56201" stroke="black" stroke-linecap="round" stroke-linejoin="round"/>
<path d="M7.875 7.43701C8.11662 7.43701 8.3125 7.24113 8.3125 6.99951C8.3125 6.75787 8.11662 6.56201 7.875 6.56201" stroke="black" stroke-linecap="round" stroke-linejoin="round"/>
<path d="M14.875 7.43701C14.6334 7.43701 14.4375 7.24113 14.4375 6.99951C14.4375 6.75787 14.6334 6.56201 14.875 6.56201" stroke="black" stroke-linecap="round" stroke-linejoin="round"/>
<path d="M14.875 7.43701C15.1166 7.43701 15.3125 7.24113 15.3125 6.99951C15.3125 6.75787 15.1166 6.56201 14.875 6.56201" stroke="black" stroke-linecap="round" stroke-linejoin="round"/>
</svg>
