<svg width="42" height="42" viewBox="0 0 42 42" fill="none" xmlns="http://www.w3.org/2000/svg">
<path d="M35.875 0.875H6.125C5.15851 0.875 4.375 1.6585 4.375 2.625V37.625C4.375 38.5915 5.15851 39.375 6.125 39.375H35.875C36.8415 39.375 37.625 38.5915 37.625 37.625V2.625C37.625 1.6585 36.8415 0.875 35.875 0.875Z" stroke="black" stroke-linecap="round" stroke-linejoin="round"/>
<path d="M4.375 7.875H37.625" stroke="black" stroke-linecap="round" stroke-linejoin="round"/>
<path d="M21 29.75C24.3828 29.75 27.125 27.0078 27.125 23.625C27.125 20.2422 24.3828 17.5 21 17.5C17.6172 17.5 14.875 20.2422 14.875 23.625C14.875 27.0078 17.6172 29.75 21 29.75Z" stroke="black" stroke-linecap="round" stroke-linejoin="round"/>
<path d="M7.875 4.375H14.875" stroke="black" stroke-linecap="round" stroke-linejoin="round"/>
<path d="M6.125 39.375V41.125" stroke="black" stroke-linecap="round" stroke-linejoin="round"/>
<path d="M35.875 39.375V41.125" stroke="black" stroke-linecap="round" stroke-linejoin="round"/>
<path d="M21 34.125C26.799 34.125 31.5 29.424 31.5 23.625C31.5 17.826 26.799 13.125 21 13.125C15.201 13.125 10.5 17.826 10.5 23.625C10.5 29.424 15.201 34.125 21 34.125Z" stroke="black" stroke-linecap="round" stroke-linejoin="round"/>
<path d="M24.9375 4.8125C24.6958 4.8125 24.5 4.61662 24.5 4.375C24.5 4.13338 24.6958 3.9375 24.9375 3.9375" stroke="black"/>
<path d="M24.9375 4.8125C25.1792 4.8125 25.375 4.61662 25.375 4.375C25.375 4.13338 25.1792 3.9375 24.9375 3.9375" stroke="black"/>
<path d="M29.3125 4.8125C29.0708 4.8125 28.875 4.61662 28.875 4.375C28.875 4.13338 29.0708 3.9375 29.3125 3.9375" stroke="black"/>
<path d="M29.3125 4.8125C29.5542 4.8125 29.75 4.61662 29.75 4.375C29.75 4.13338 29.5542 3.9375 29.3125 3.9375" stroke="black"/>
<path d="M33.6875 4.8125C33.4458 4.8125 33.25 4.61662 33.25 4.375C33.25 4.13338 33.4458 3.9375 33.6875 3.9375" stroke="black"/>
<path d="M33.6875 4.8125C33.9292 4.8125 34.125 4.61662 34.125 4.375C34.125 4.13338 33.9292 3.9375 33.6875 3.9375" stroke="black"/>
</svg>
