<svg width="42" height="42" viewBox="0 0 42 42" fill="none" xmlns="http://www.w3.org/2000/svg">
<path d="M7 11.375H35C35 11.375 36.75 11.375 36.75 13.125V39.375C36.75 39.375 36.75 41.125 35 41.125H7C7 41.125 5.25 41.125 5.25 39.375V13.125C5.25 13.125 5.25 11.375 7 11.375Z" stroke="black" stroke-linecap="round" stroke-linejoin="round"/>
<path d="M8.75 4.375L12.25 0.875L15.75 4.375" stroke="black" stroke-linecap="round" stroke-linejoin="round"/>
<path d="M12.25 0.875V7.875" stroke="black" stroke-linecap="round" stroke-linejoin="round"/>
<path d="M26.25 4.375L29.75 7.875L33.25 4.375" stroke="black" stroke-linecap="round" stroke-linejoin="round"/>
<path d="M29.75 7.875V0.875" stroke="black" stroke-linecap="round" stroke-linejoin="round"/>
<path d="M11.3789 18.375C11.3789 19.3033 11.7477 20.1935 12.404 20.8499C13.0604 21.5063 13.9506 21.875 14.8789 21.875C15.8072 21.875 16.6974 21.5063 17.3538 20.8499C18.0102 20.1935 18.3789 19.3033 18.3789 18.375C18.3789 17.4467 18.0102 16.5565 17.3538 15.9001C16.6974 15.2437 15.8072 14.875 14.8789 14.875C13.9506 14.875 13.0604 15.2437 12.404 15.9001C11.7477 16.5565 11.3789 17.4467 11.3789 18.375Z" stroke="black" stroke-linecap="round" stroke-linejoin="round"/>
<path d="M19.25 27.125C19.25 25.9647 18.7891 24.8519 17.9686 24.0314C17.1481 23.2109 16.0353 22.75 14.875 22.75C13.7147 22.75 12.6019 23.2109 11.7814 24.0314C10.9609 24.8519 10.5 25.9647 10.5 27.125V30.625H12.25L13.125 37.625H16.625L17.5 30.625H19.25V27.125Z" stroke="black" stroke-linecap="round" stroke-linejoin="round"/>
<path d="M23.6289 18.375C23.6289 18.8346 23.7194 19.2898 23.8953 19.7144C24.0712 20.139 24.329 20.5249 24.654 20.8499C24.979 21.1749 25.3649 21.4327 25.7895 21.6086C26.2142 21.7845 26.6693 21.875 27.1289 21.875C27.5885 21.875 28.0437 21.7845 28.4683 21.6086C28.8929 21.4327 29.2788 21.1749 29.6038 20.8499C29.9288 20.5249 30.1866 20.139 30.3625 19.7144C30.5384 19.2898 30.6289 18.8346 30.6289 18.375C30.6289 17.9154 30.5384 17.4602 30.3625 17.0356C30.1866 16.611 29.9288 16.2251 29.6038 15.9001C29.2788 15.5751 28.8929 15.3173 28.4683 15.1414C28.0437 14.9655 27.5885 14.875 27.1289 14.875C26.6693 14.875 26.2142 14.9655 25.7895 15.1414C25.3649 15.3173 24.979 15.5751 24.654 15.9001C24.329 16.2251 24.0712 16.611 23.8953 17.0356C23.7194 17.4602 23.6289 17.9154 23.6289 18.375Z" stroke="black" stroke-linecap="round" stroke-linejoin="round"/>
<path d="M31.5 27.125C31.5 25.9647 31.0391 24.8519 30.2186 24.0314C29.3981 23.2109 28.2853 22.75 27.125 22.75C25.9647 22.75 24.8519 23.2109 24.0314 24.0314C23.2109 24.8519 22.75 25.9647 22.75 27.125V30.625H24.5L25.375 37.625H28.875L29.75 30.625H31.5V27.125Z" stroke="black" stroke-linecap="round" stroke-linejoin="round"/>
</svg>
