<svg width="42" height="42" viewBox="0 0 42 42" fill="none" xmlns="http://www.w3.org/2000/svg">
<g clip-path="url(#clip0_69_173)">
<path d="M25.6377 2.88745C26.3377 3.58745 26.6877 4.46247 26.6877 5.33747V24.9374" stroke="black" stroke-miterlimit="10" stroke-linecap="round" stroke-linejoin="round"/>
<path d="M26.6875 30.1876V37.1876C26.6875 39.1126 25.1125 40.6876 23.1875 40.6876H4.8125C2.8875 40.6876 1.3125 39.1126 1.3125 37.1876V5.33755C1.3125 4.46255 1.66249 3.76255 2.01248 3.23755" stroke="black" stroke-miterlimit="10" stroke-linecap="round" stroke-linejoin="round"/>
<path d="M21.4369 30.1875C20.3869 33.1625 17.4119 35.4375 14.0869 35.4375C9.71191 35.4375 6.21191 31.9375 6.21191 27.5625C6.21191 23.1875 9.71191 19.6875 14.0869 19.6875C17.5869 19.6875 20.3869 21.9625 21.4369 24.9375" stroke="black" stroke-miterlimit="10" stroke-linecap="round" stroke-linejoin="round"/>
<path d="M40.6872 27.5625C40.6872 28.9625 39.4622 30.1875 38.0622 30.1875H13.9121C12.5121 30.1875 11.2871 28.9625 11.2871 27.5625C11.2871 26.1625 12.5121 24.9375 13.9121 24.9375H38.0622C39.6372 24.9375 40.6872 26.1625 40.6872 27.5625Z" stroke="black" stroke-miterlimit="10" stroke-linecap="round" stroke-linejoin="round"/>
<path d="M13.9998 11.5061C13.6498 11.5061 13.2998 11.8561 13.2998 12.2061C13.2998 12.5561 13.6498 12.9061 13.9998 12.9061" stroke="black" stroke-miterlimit="10" stroke-linecap="round" stroke-linejoin="round"/>
<path d="M14 11.5061C14.35 11.5061 14.7 11.8561 14.7 12.2061C14.7 12.5561 14.35 12.9061 14 12.9061" stroke="black" stroke-miterlimit="10" stroke-linecap="round" stroke-linejoin="round"/>
<path d="M10.3252 8.00615C12.4252 5.90615 15.7502 5.90615 17.6752 8.00615" stroke="black" stroke-miterlimit="10" stroke-linecap="round" stroke-linejoin="round"/>
<path d="M6.5625 4.33125C10.5875 0.30625 17.2375 0.30625 21.4375 4.33125" stroke="black" stroke-miterlimit="10" stroke-linecap="round" stroke-linejoin="round"/>
</g>
<defs>
<clipPath id="clip0_69_173">
<rect width="42" height="42" fill="white"/>
</clipPath>
</defs>
</svg>
