<svg width="42" height="42" viewBox="0 0 42 42" fill="none" xmlns="http://www.w3.org/2000/svg">
<path d="M1.3125 35.4375V6.5625C1.3125 4.6295 2.8795 3.0625 4.8125 3.0625H37.1875C39.1206 3.0625 40.6875 4.6295 40.6875 6.5625V35.4375C40.6875 37.3706 39.1206 38.9375 37.1875 38.9375H4.8125C2.8795 38.9375 1.3125 37.3706 1.3125 35.4375Z" stroke="black" stroke-linecap="round" stroke-linejoin="round"/>
<path d="M6.5625 15.0676C6.5625 16.5013 7.13203 17.8763 8.14581 18.8901C9.15958 19.9038 10.5346 20.4734 11.9683 20.4734C13.4019 20.4734 14.7769 19.9038 15.7907 18.8901C16.8045 17.8763 17.374 16.5013 17.374 15.0676C17.374 13.6339 16.8045 12.2589 15.7907 11.2452C14.7769 10.2314 13.4019 9.66187 11.9683 9.66187C10.5346 9.66187 9.15958 10.2314 8.14581 11.2452C7.13203 12.2589 6.5625 13.6339 6.5625 15.0676Z" stroke="black" stroke-linecap="round" stroke-linejoin="round"/>
<path d="M22.3525 14.4744C22.3525 15.4026 22.7213 16.2929 23.3777 16.9492C24.034 17.6056 24.9243 17.9744 25.8525 17.9744C26.7808 17.9744 27.671 17.6056 28.3274 16.9492C28.9838 16.2929 29.3525 15.4026 29.3525 14.4744C29.3525 13.5461 28.9838 12.6559 28.3274 11.9995C27.671 11.3431 26.7808 10.9744 25.8525 10.9744C24.9243 10.9744 24.034 11.3431 23.3777 11.9995C22.7213 12.6559 22.3525 13.5461 22.3525 14.4744Z" stroke="black" stroke-linecap="round" stroke-linejoin="round"/>
<path d="M22.3525 28.8381C22.3525 29.7664 22.7213 30.6566 23.3777 31.313C24.034 31.9694 24.9243 32.3381 25.8525 32.3381C26.7808 32.3381 27.671 31.9694 28.3274 31.313C28.9838 30.6566 29.3525 29.7664 29.3525 28.8381C29.3525 27.9099 28.9838 27.0196 28.3274 26.3633C27.671 25.7069 26.7808 25.3381 25.8525 25.3381C24.9243 25.3381 24.034 25.7069 23.3777 26.3633C22.7213 27.0196 22.3525 27.9099 22.3525 28.8381Z" stroke="black" stroke-linecap="round" stroke-linejoin="round"/>
<path d="M8.47656 28.8381C8.47656 29.2978 8.56709 29.7529 8.74298 30.1775C8.91888 30.6022 9.17668 30.988 9.50169 31.313C9.82669 31.638 10.2125 31.8958 10.6372 32.0717C11.0618 32.2476 11.5169 32.3381 11.9766 32.3381C12.4362 32.3381 12.8913 32.2476 13.316 32.0717C13.7406 31.8958 14.1264 31.638 14.4514 31.313C14.7764 30.988 15.0342 30.6022 15.2101 30.1775C15.386 29.7529 15.4766 29.2978 15.4766 28.8381C15.4766 28.3785 15.386 27.9234 15.2101 27.4987C15.0342 27.0741 14.7764 26.6883 14.4514 26.3633C14.1264 26.0383 13.7406 25.7804 13.316 25.6046C12.8913 25.4287 12.4362 25.3381 11.9766 25.3381C11.5169 25.3381 11.0618 25.4287 10.6372 25.6046C10.2125 25.7804 9.82669 26.0383 9.50169 26.3633C9.17668 26.6883 8.91888 27.0741 8.74298 27.4987C8.56709 27.9234 8.47656 28.3785 8.47656 28.8381Z" stroke="black" stroke-linecap="round" stroke-linejoin="round"/>
<path d="M35 21.5469C34.7583 21.5469 34.5625 21.3511 34.5625 21.1094C34.5625 20.8677 34.7583 20.6719 35 20.6719" stroke="black" stroke-linecap="round" stroke-linejoin="round"/>
<path d="M35 21.5469C35.2417 21.5469 35.4375 21.3511 35.4375 21.1094C35.4375 20.8677 35.2417 20.6719 35 20.6719" stroke="black" stroke-linecap="round" stroke-linejoin="round"/>
<path d="M35 27.5625C34.7583 27.5625 34.5625 27.3667 34.5625 27.125C34.5625 26.8833 34.7583 26.6875 35 26.6875" stroke="black" stroke-linecap="round" stroke-linejoin="round"/>
<path d="M35 27.5625C35.2417 27.5625 35.4375 27.3667 35.4375 27.125C35.4375 26.8833 35.2417 26.6875 35 26.6875" stroke="black" stroke-linecap="round" stroke-linejoin="round"/>
<path d="M35 33.5781C34.7583 33.5781 34.5625 33.3823 34.5625 33.1406C34.5625 32.8989 34.7583 32.7031 35 32.7031" stroke="black" stroke-linecap="round" stroke-linejoin="round"/>
<path d="M35 33.5781C35.2417 33.5781 35.4375 33.3823 35.4375 33.1406C35.4375 32.8989 35.2417 32.7031 35 32.7031" stroke="black" stroke-linecap="round" stroke-linejoin="round"/>
</svg>
