<svg width="42" height="42" viewBox="0 0 42 42" fill="none" xmlns="http://www.w3.org/2000/svg">
<path d="M24.6064 9.17529C25.0985 9.66755 25.375 10.3351 25.375 11.0312C25.375 11.7272 25.0985 12.3948 24.6064 12.887" stroke="black" stroke-linecap="round" stroke-linejoin="round"/>
<path d="M28.3184 5.46167C29.0497 6.19294 29.6296 7.06106 30.0255 8.01651C30.4212 8.97196 30.6249 9.99601 30.6249 11.0302C30.6249 12.0643 30.4212 13.0884 30.0255 14.0438C29.6296 14.9993 29.0497 15.8674 28.3184 16.5987" stroke="black" stroke-linecap="round" stroke-linejoin="round"/>
<path d="M28.3184 5.46167C29.0497 6.19294 29.6296 7.06106 30.0255 8.01651C30.4212 8.97196 30.6249 9.99601 30.6249 11.0302C30.6249 12.0643 30.4212 13.0884 30.0255 14.0438C29.6296 14.9993 29.0497 15.8674 28.3184 16.5987" stroke="black" stroke-linecap="round" stroke-linejoin="round"/>
<path d="M32.0254 1.75C33.2443 2.96879 34.2111 4.41572 34.8707 6.00817C35.5305 7.60064 35.87 9.30745 35.87 11.0311C35.87 12.7548 35.5305 14.4616 34.8707 16.0541C34.2111 17.6465 33.2443 19.0936 32.0254 20.3123" stroke="black" stroke-linecap="round" stroke-linejoin="round"/>
<path d="M32.0254 1.75C33.2443 2.96879 34.2111 4.41572 34.8707 6.00817C35.5305 7.60064 35.87 9.30745 35.87 11.0311C35.87 12.7548 35.5305 14.4616 34.8707 16.0541C34.2111 17.6465 33.2443 19.0936 32.0254 20.3123" stroke="black" stroke-linecap="round" stroke-linejoin="round"/>
<path d="M17.3936 9.17529C16.9014 9.66755 16.625 10.3351 16.625 11.0312C16.625 11.7272 16.9014 12.3948 17.3936 12.887" stroke="black" stroke-linecap="round" stroke-linejoin="round"/>
<path d="M13.6816 5.46167C12.9503 6.19294 12.3702 7.06106 11.9745 8.01651C11.5787 8.97196 11.375 9.99601 11.375 11.0302C11.375 12.0643 11.5787 13.0884 11.9745 14.0438C12.3702 14.9993 12.9503 15.8674 13.6816 16.5987" stroke="black" stroke-linecap="round" stroke-linejoin="round"/>
<path d="M13.6816 5.46167C12.9503 6.19294 12.3702 7.06106 11.9745 8.01651C11.5787 8.97196 11.375 9.99601 11.375 11.0302C11.375 12.0643 11.5787 13.0884 11.9745 14.0438C12.3702 14.9993 12.9503 15.8674 13.6816 16.5987" stroke="black" stroke-linecap="round" stroke-linejoin="round"/>
<path d="M9.97543 1.75C8.75656 2.96879 7.7897 4.41572 7.13004 6.00817C6.47038 7.60064 6.13086 9.30745 6.13086 11.0311C6.13086 12.7548 6.47038 14.4616 7.13004 16.0541C7.7897 17.6465 8.75656 19.0936 9.97543 20.3123" stroke="black" stroke-linecap="round" stroke-linejoin="round"/>
<path d="M9.97543 1.75C8.75656 2.96879 7.7897 4.41572 7.13004 6.00817C6.47038 7.60064 6.13086 9.30745 6.13086 11.0311C6.13086 12.7548 6.47038 14.4616 7.13004 16.0541C7.7897 17.6465 8.75656 19.0936 9.97543 20.3123" stroke="black" stroke-linecap="round" stroke-linejoin="round"/>
<path d="M41.125 33.25C41.125 34.1782 40.7563 35.0684 40.0998 35.7248C39.4434 36.3813 38.5532 36.75 37.625 36.75H4.375C3.44675 36.75 2.55651 36.3813 1.90013 35.7248C1.24375 35.0684 0.875 34.1782 0.875 33.25V29.75C0.875 28.8218 1.24375 27.9316 1.90013 27.2752C2.55651 26.6187 3.44675 26.25 4.375 26.25H37.625C38.5532 26.25 39.4434 26.6187 40.0998 27.2752C40.7563 27.9316 41.125 28.8218 41.125 29.75V33.25Z" stroke="black" stroke-linecap="round" stroke-linejoin="round"/>
<path d="M8.3125 31.9375C8.07088 31.9375 7.875 31.7417 7.875 31.5C7.875 31.2583 8.07088 31.0625 8.3125 31.0625" stroke="black"/>
<path d="M8.3125 31.9375C8.55412 31.9375 8.75 31.7417 8.75 31.5C8.75 31.2583 8.55412 31.0625 8.3125 31.0625" stroke="black"/>
<path d="M14.4375 31.9375C14.1959 31.9375 14 31.7417 14 31.5C14 31.2583 14.1959 31.0625 14.4375 31.0625" stroke="black"/>
<path d="M14.4375 31.9375C14.6791 31.9375 14.875 31.7417 14.875 31.5C14.875 31.2583 14.6791 31.0625 14.4375 31.0625" stroke="black"/>
<path d="M21 26.25V17.5" stroke="black" stroke-linecap="round" stroke-linejoin="round"/>
<path d="M7 36.75L4.375 40.25" stroke="black" stroke-linecap="round" stroke-linejoin="round"/>
<path d="M35 36.75L37.625 40.25" stroke="black" stroke-linecap="round" stroke-linejoin="round"/>
</svg>
