<svg width="42" height="42" viewBox="0 0 42 42" fill="none" xmlns="http://www.w3.org/2000/svg">
<g clip-path="url(#clip0_69_151)">
<path d="M23.6247 24.9794H40.2252C40.3447 24.9792 40.4629 25.0034 40.5727 25.0507C40.6824 25.0979 40.7813 25.1671 40.8633 25.254C40.9453 25.3409 41.0086 25.4436 41.0493 25.5559C41.0901 25.6682 41.1074 25.7877 41.1002 25.9069C40.8637 29.9167 39.104 33.6846 36.1812 36.4399C33.2584 39.1952 29.3933 40.7297 25.3765 40.7294H16.6265C12.6083 40.73 8.74174 39.1948 5.81836 36.438C2.89498 33.6812 1.13583 29.9113 0.900991 25.8999C0.893823 25.7807 0.911149 25.6612 0.951901 25.5489C0.992653 25.4366 1.05597 25.3339 1.13794 25.247C1.21992 25.1601 1.31882 25.0909 1.42856 25.0437C1.53829 24.9964 1.65653 24.9722 1.77599 24.9724H11.3747" stroke="black" stroke-linecap="round" stroke-linejoin="round"/>
<path d="M30.2227 3.73807L31.7977 2.16307C32.3025 1.71413 32.9265 1.42091 33.5943 1.31879C34.2622 1.21666 34.9453 1.31 35.5612 1.58754C36.1772 1.86508 36.6997 2.31496 37.0656 2.88288C37.4315 3.45079 37.6252 4.11248 37.6234 4.78807V24.9796" stroke="black" stroke-linecap="round" stroke-linejoin="round"/>
<path d="M30.2224 9.60408C30.6142 9.22051 30.9261 8.76305 31.14 8.25816C31.3539 7.75327 31.4656 7.21098 31.4686 6.66265C31.4715 6.11432 31.3658 5.57085 31.1573 5.06367C30.9489 4.55649 30.642 4.09568 30.2543 3.70789C29.8666 3.3201 29.4059 3.01303 28.8988 2.80445C28.3917 2.59587 27.8482 2.48992 27.2999 2.49273C26.7516 2.49554 26.2092 2.60705 25.7043 2.82081C25.1993 3.03457 24.7418 3.34634 24.3581 3.73808L23.9994 4.09683C23.8353 4.26091 23.7432 4.48343 23.7432 4.71545C23.7432 4.94747 23.8353 5.16999 23.9994 5.33408L28.6264 9.96283C28.7076 10.0443 28.8042 10.109 28.9105 10.1531C29.0168 10.1972 29.1308 10.2199 29.2459 10.2199C29.3609 10.2199 29.4749 10.1972 29.5812 10.1531C29.6875 10.109 29.7841 10.0443 29.8654 9.96283L30.2224 9.60408Z" stroke="black" stroke-linecap="round" stroke-linejoin="round"/>
<path d="M19.9641 5.87305L16.7861 7.3378" stroke="black" stroke-linecap="round" stroke-linejoin="round"/>
<path d="M27.813 13.7463L26.4375 16.9646" stroke="black" stroke-linecap="round" stroke-linejoin="round"/>
<path d="M23.1194 10.6243L20.6309 13.0865" stroke="black" stroke-linecap="round" stroke-linejoin="round"/>
<path d="M23.625 23.2295C23.625 22.7654 23.4406 22.3202 23.1124 21.9921C22.7842 21.6639 22.3391 21.4795 21.875 21.4795H13.125C12.6609 21.4795 12.2158 21.6639 11.8876 21.9921C11.5594 22.3202 11.375 22.7654 11.375 23.2295V32.8545C11.375 33.0866 11.4672 33.3091 11.6313 33.4732C11.7954 33.6373 12.0179 33.7295 12.25 33.7295H22.75C22.9821 33.7295 23.2046 33.6373 23.3687 33.4732C23.5328 33.3091 23.625 33.0866 23.625 32.8545V23.2295Z" stroke="black" stroke-linecap="round" stroke-linejoin="round"/>
</g>
<defs>
<clipPath id="clip0_69_151">
<rect width="42" height="42" fill="white"/>
</clipPath>
</defs>
</svg>
