<svg width="561" height="362" viewBox="0 0 561 362" fill="none" xmlns="http://www.w3.org/2000/svg">
<path d="M70.654 125.943V112.023H75.994C78.934 112.023 80.294 113.583 80.294 115.503C80.294 117.123 79.374 118.163 78.294 118.543C79.274 118.843 80.754 119.823 80.754 121.863C80.754 124.483 78.754 125.943 76.114 125.943H70.654ZM72.454 117.823H75.634C77.654 117.823 78.434 117.023 78.434 115.663C78.434 114.423 77.554 113.563 75.914 113.563H72.454V117.823ZM72.454 119.343V124.423H75.894C77.634 124.423 78.854 123.603 78.854 121.863C78.854 120.363 77.894 119.343 75.534 119.343H72.454ZM91.5023 121.183H84.3423C84.3623 123.243 85.4023 124.723 87.1223 124.723C88.7223 124.723 89.2423 123.883 89.5623 123.143H91.3423C90.9423 124.443 89.8423 126.183 87.0623 126.183C83.8823 126.183 82.5823 123.583 82.5823 120.983C82.5823 117.963 84.1023 115.563 87.1823 115.563C90.4623 115.563 91.5223 118.183 91.5223 120.343C91.5223 120.663 91.5223 120.923 91.5023 121.183ZM84.4023 119.963H89.7423C89.7223 118.283 88.8823 116.943 87.1623 116.943C85.3623 116.943 84.5823 118.183 84.4023 119.963ZM100.568 111.263H102.328V123.083C102.328 124.023 102.328 124.963 102.348 125.943H100.668C100.608 125.683 100.568 124.903 100.568 124.503C100.068 125.563 99.0482 126.183 97.3882 126.183C94.7682 126.183 93.1682 124.063 93.1682 120.983C93.1682 117.863 94.9082 115.563 97.7082 115.563C99.5082 115.563 100.308 116.283 100.568 116.863V111.263ZM94.9882 120.923C94.9882 123.363 96.1482 124.703 97.7482 124.703C100.108 124.703 100.648 122.943 100.648 120.723C100.648 118.463 100.168 117.043 97.8882 117.043C96.0882 117.043 94.9882 118.463 94.9882 120.923ZM105.314 125.943V118.563C105.314 117.143 105.294 116.343 105.294 115.803H107.014C107.034 116.083 107.074 116.883 107.074 117.863C107.594 116.503 108.794 115.603 110.474 115.563V117.303C108.394 117.363 107.074 118.463 107.074 121.023V125.943H105.314ZM116.249 115.563C119.069 115.563 120.909 117.663 120.909 120.843C120.909 123.783 119.229 126.183 116.129 126.183C113.229 126.183 111.469 123.943 111.469 120.883C111.469 117.883 113.189 115.563 116.249 115.563ZM116.169 117.023C114.269 117.023 113.269 118.563 113.269 120.863C113.269 123.103 114.389 124.723 116.209 124.723C118.049 124.723 119.109 123.183 119.109 120.883C119.109 118.603 118.069 117.023 116.169 117.023ZM127.362 115.563C130.182 115.563 132.022 117.663 132.022 120.843C132.022 123.783 130.342 126.183 127.242 126.183C124.342 126.183 122.582 123.943 122.582 120.883C122.582 117.883 124.302 115.563 127.362 115.563ZM127.282 117.023C125.382 117.023 124.382 118.563 124.382 120.863C124.382 123.103 125.502 124.723 127.322 124.723C129.162 124.723 130.222 123.183 130.222 120.883C130.222 118.603 129.182 117.023 127.282 117.023ZM134.298 125.943V118.423C134.298 117.543 134.298 116.623 134.278 115.803H135.958C135.998 116.103 136.038 116.843 136.038 117.363C136.498 116.463 137.378 115.563 138.978 115.563C140.418 115.563 141.398 116.283 141.798 117.383C142.338 116.423 143.298 115.563 145.018 115.563C146.678 115.563 148.218 116.543 148.218 119.283V125.943H146.498V119.483C146.498 118.323 146.078 117.083 144.498 117.083C142.838 117.083 142.118 118.323 142.118 120.123V125.943H140.398V119.543C140.398 118.243 140.038 117.083 138.438 117.083C136.818 117.083 136.038 118.403 136.038 120.323V125.943H134.298Z" fill="black"/>
<path d="M32.8654 280.057V266.137H38.2054C41.1454 266.137 42.5054 267.697 42.5054 269.617C42.5054 271.237 41.5854 272.277 40.5054 272.657C41.4854 272.957 42.9654 273.937 42.9654 275.977C42.9654 278.597 40.9654 280.057 38.3254 280.057H32.8654ZM34.6654 271.937H37.8454C39.8654 271.937 40.6454 271.137 40.6454 269.777C40.6454 268.537 39.7654 267.677 38.1254 267.677H34.6654V271.937ZM34.6654 273.457V278.537H38.1054C39.8454 278.537 41.0654 277.717 41.0654 275.977C41.0654 274.477 40.1054 273.457 37.7454 273.457H34.6654ZM53.0151 272.997V277.837C53.0151 278.777 53.0951 279.757 53.1551 280.057H51.4751C51.3951 279.837 51.3351 279.357 51.3151 278.737C50.9551 279.397 50.1351 280.297 48.1751 280.297C45.7751 280.297 44.7551 278.737 44.7551 277.197C44.7551 274.937 46.5351 273.897 49.5551 273.897H51.2751V273.037C51.2751 272.137 50.9951 271.057 49.0951 271.057C47.4151 271.057 47.1151 271.897 46.9351 272.677H45.2351C45.3751 271.277 46.2351 269.677 49.1551 269.677C51.6351 269.677 53.0151 270.697 53.0151 272.997ZM51.2951 275.437V275.117H49.6551C47.6351 275.117 46.5551 275.677 46.5551 277.097C46.5551 278.157 47.2751 278.917 48.5351 278.917C50.9751 278.917 51.2951 277.277 51.2951 275.437ZM54.6043 271.337V269.917H56.3643V266.917H58.1043V269.917H60.3443V271.337H58.1043V277.277C58.1043 278.277 58.3443 278.777 59.2643 278.777C59.5043 278.777 59.8643 278.757 60.1443 278.697V280.017C59.7243 280.177 59.1243 280.197 58.6243 280.197C57.0443 280.197 56.3643 279.377 56.3643 277.697V271.337H54.6043ZM62.2129 265.377H63.9729V271.417C64.4729 270.517 65.4129 269.677 67.1329 269.677C68.7529 269.677 70.5529 270.557 70.5529 273.577V280.057H68.7929V273.877C68.7929 272.157 68.0729 271.197 66.5929 271.197C64.7729 271.197 63.9729 272.397 63.9729 274.517V280.057H62.2129V265.377ZM73.541 280.057V272.677C73.541 271.257 73.521 270.457 73.521 269.917H75.241C75.261 270.197 75.301 270.997 75.301 271.977C75.821 270.617 77.021 269.717 78.701 269.677V271.417C76.621 271.477 75.301 272.577 75.301 275.137V280.057H73.541ZM84.476 269.677C87.296 269.677 89.136 271.777 89.136 274.957C89.136 277.897 87.456 280.297 84.356 280.297C81.456 280.297 79.696 278.057 79.696 274.997C79.696 271.997 81.416 269.677 84.476 269.677ZM84.396 271.137C82.496 271.137 81.496 272.677 81.496 274.977C81.496 277.217 82.616 278.837 84.436 278.837C86.276 278.837 87.336 277.297 87.336 274.997C87.336 272.717 86.296 271.137 84.396 271.137ZM95.5893 269.677C98.4093 269.677 100.249 271.777 100.249 274.957C100.249 277.897 98.5693 280.297 95.4693 280.297C92.5693 280.297 90.8093 278.057 90.8093 274.997C90.8093 271.997 92.5293 269.677 95.5893 269.677ZM95.5093 271.137C93.6093 271.137 92.6093 272.677 92.6093 274.977C92.6093 277.217 93.7293 278.837 95.5493 278.837C97.3893 278.837 98.4493 277.297 98.4493 274.997C98.4493 272.717 97.4093 271.137 95.5093 271.137ZM102.525 280.057V272.537C102.525 271.657 102.525 270.737 102.505 269.917H104.185C104.225 270.217 104.265 270.957 104.265 271.477C104.725 270.577 105.605 269.677 107.205 269.677C108.645 269.677 109.625 270.397 110.025 271.497C110.565 270.537 111.525 269.677 113.245 269.677C114.905 269.677 116.445 270.657 116.445 273.397V280.057H114.725V273.597C114.725 272.437 114.305 271.197 112.725 271.197C111.065 271.197 110.345 272.437 110.345 274.237V280.057H108.625V273.657C108.625 272.357 108.265 271.197 106.665 271.197C105.045 271.197 104.265 272.517 104.265 274.437V280.057H102.525Z" fill="black"/>
<path d="M299.263 202.114V188.194H301.103V200.534H308.363L308.103 202.114H299.263ZM310.446 202.114V191.974H312.206V202.114H310.446ZM312.206 189.614H310.446V187.434H312.206V189.614ZM314.011 191.974H315.891C317.251 196.114 318.251 199.214 318.571 200.474H318.591C318.831 199.354 319.911 196.314 321.431 191.974H323.211L319.491 202.114H317.551L314.011 191.974ZM325.017 202.114V191.974H326.777V202.114H325.017ZM326.777 189.614H325.017V187.434H326.777V189.614ZM329.763 202.114V194.534C329.763 193.654 329.763 192.754 329.743 191.974H331.443C331.503 192.274 331.523 193.334 331.523 193.634C331.923 192.774 332.743 191.734 334.703 191.734C336.623 191.734 338.103 192.894 338.103 195.594V202.114H336.343V195.814C336.343 194.274 335.743 193.254 334.203 193.254C332.283 193.254 331.523 194.714 331.523 196.754V202.114H329.763ZM349.451 194.894V201.194C349.451 204.454 348.111 206.294 344.791 206.294C341.711 206.294 340.771 204.574 340.591 203.194H342.371C342.671 204.314 343.571 204.894 344.871 204.894C347.171 204.894 347.731 203.434 347.731 201.114V200.294C347.191 201.414 346.271 202.074 344.571 202.074C342.071 202.074 340.371 200.034 340.371 197.054C340.371 193.754 342.311 191.734 344.751 191.734C346.691 191.734 347.511 192.634 347.731 193.314C347.751 192.854 347.811 192.174 347.831 191.974H349.471C349.471 192.554 349.451 193.934 349.451 194.894ZM342.191 196.974C342.191 199.114 343.311 200.574 344.971 200.574C347.151 200.574 347.791 199.094 347.791 196.854C347.791 194.574 347.191 193.214 345.031 193.214C343.151 193.214 342.191 194.794 342.191 196.974ZM362.497 195.994H359.657V202.114H357.837V188.194H363.277C366.137 188.194 367.657 189.754 367.657 191.914C367.657 193.734 366.617 194.834 365.277 195.194C366.417 195.494 367.397 196.354 367.397 198.754V199.354C367.397 200.314 367.357 201.534 367.597 202.114H365.797C365.537 201.514 365.557 200.434 365.557 199.114V198.834C365.557 196.854 364.997 195.994 362.497 195.994ZM359.657 189.754V194.434H362.677C364.817 194.434 365.737 193.634 365.737 192.074C365.737 190.594 364.777 189.754 362.897 189.754H359.657ZM374.389 191.734C377.209 191.734 379.049 193.834 379.049 197.014C379.049 199.954 377.369 202.354 374.269 202.354C371.369 202.354 369.609 200.114 369.609 197.054C369.609 194.054 371.329 191.734 374.389 191.734ZM374.309 193.194C372.409 193.194 371.409 194.734 371.409 197.034C371.409 199.274 372.529 200.894 374.349 200.894C376.189 200.894 377.249 199.354 377.249 197.054C377.249 194.774 376.209 193.194 374.309 193.194ZM385.503 191.734C388.323 191.734 390.163 193.834 390.163 197.014C390.163 199.954 388.483 202.354 385.383 202.354C382.483 202.354 380.723 200.114 380.723 197.054C380.723 194.054 382.443 191.734 385.503 191.734ZM385.423 193.194C383.523 193.194 382.523 194.734 382.523 197.034C382.523 199.274 383.643 200.894 385.463 200.894C387.303 200.894 388.363 199.354 388.363 197.054C388.363 194.774 387.323 193.194 385.423 193.194ZM392.439 202.114V194.594C392.439 193.714 392.439 192.794 392.419 191.974H394.099C394.139 192.274 394.179 193.014 394.179 193.534C394.639 192.634 395.519 191.734 397.119 191.734C398.559 191.734 399.539 192.454 399.939 193.554C400.479 192.594 401.439 191.734 403.159 191.734C404.819 191.734 406.359 192.714 406.359 195.454V202.114H404.639V195.654C404.639 194.494 404.219 193.254 402.639 193.254C400.979 193.254 400.259 194.494 400.259 196.294V202.114H398.539V195.714C398.539 194.414 398.179 193.254 396.579 193.254C394.959 193.254 394.179 194.574 394.179 196.494V202.114H392.439Z" fill="black"/>
<path d="M247.326 17V3.08H249.166V15.42H256.426L256.166 17H247.326ZM258.51 17V6.86H260.27V17H258.51ZM260.27 4.5H258.51V2.32H260.27V4.5ZM262.074 6.86H263.954C265.314 11 266.314 14.1 266.634 15.36H266.654C266.894 14.24 267.974 11.2 269.494 6.86H271.274L267.554 17H265.614L262.074 6.86ZM273.08 17V6.86H274.84V17H273.08ZM274.84 4.5H273.08V2.32H274.84V4.5ZM277.826 17V9.42C277.826 8.54 277.826 7.64 277.806 6.86H279.506C279.566 7.16 279.586 8.22 279.586 8.52C279.986 7.66 280.806 6.62 282.766 6.62C284.686 6.62 286.166 7.78 286.166 10.48V17H284.406V10.7C284.406 9.16 283.806 8.14 282.266 8.14C280.346 8.14 279.586 9.6 279.586 11.64V17H277.826ZM297.514 9.78V16.08C297.514 19.34 296.174 21.18 292.854 21.18C289.774 21.18 288.834 19.46 288.654 18.08H290.434C290.734 19.2 291.634 19.78 292.934 19.78C295.234 19.78 295.794 18.32 295.794 16V15.18C295.254 16.3 294.334 16.96 292.634 16.96C290.134 16.96 288.434 14.92 288.434 11.94C288.434 8.64 290.374 6.62 292.814 6.62C294.754 6.62 295.574 7.52 295.794 8.2C295.814 7.74 295.874 7.06 295.894 6.86H297.534C297.534 7.44 297.514 8.82 297.514 9.78ZM290.254 11.86C290.254 14 291.374 15.46 293.034 15.46C295.214 15.46 295.854 13.98 295.854 11.74C295.854 9.46 295.254 8.1 293.094 8.1C291.214 8.1 290.254 9.68 290.254 11.86ZM308.701 17V4.66H304.221V3.08H315.061V4.66H310.561V17H308.701ZM322.921 12.24H315.761C315.781 14.3 316.821 15.78 318.541 15.78C320.141 15.78 320.661 14.94 320.981 14.2H322.761C322.361 15.5 321.261 17.24 318.481 17.24C315.301 17.24 314.001 14.64 314.001 12.04C314.001 9.02 315.521 6.62 318.601 6.62C321.881 6.62 322.941 9.24 322.941 11.4C322.941 11.72 322.941 11.98 322.921 12.24ZM315.821 11.02H321.161C321.141 9.34 320.301 8 318.581 8C316.781 8 316.001 9.24 315.821 11.02ZM325.189 17V9.62C325.189 8.2 325.169 7.4 325.169 6.86H326.889C326.909 7.14 326.949 7.94 326.949 8.92C327.469 7.56 328.669 6.66 330.349 6.62V8.36C328.269 8.42 326.949 9.52 326.949 12.08V17H325.189ZM332.025 17V9.62C332.025 8.2 332.005 7.4 332.005 6.86H333.725C333.745 7.14 333.785 7.94 333.785 8.92C334.305 7.56 335.505 6.66 337.185 6.62V8.36C335.105 8.42 333.785 9.52 333.785 12.08V17H332.025ZM346.285 9.94V14.78C346.285 15.72 346.365 16.7 346.425 17H344.745C344.665 16.78 344.605 16.3 344.585 15.68C344.225 16.34 343.405 17.24 341.445 17.24C339.045 17.24 338.025 15.68 338.025 14.14C338.025 11.88 339.805 10.84 342.825 10.84H344.545V9.98C344.545 9.08 344.265 8 342.365 8C340.685 8 340.385 8.84 340.205 9.62H338.505C338.645 8.22 339.505 6.62 342.425 6.62C344.905 6.62 346.285 7.64 346.285 9.94ZM344.565 12.38V12.06H342.925C340.905 12.06 339.825 12.62 339.825 14.04C339.825 15.1 340.545 15.86 341.805 15.86C344.245 15.86 344.565 14.22 344.565 12.38ZM355.571 13.9H357.311C356.891 15.64 355.711 17.24 353.131 17.24C350.331 17.24 348.611 15.24 348.611 11.98C348.611 9.12 350.231 6.62 353.251 6.62C356.171 6.62 357.191 8.7 357.311 10H355.571C355.331 8.98 354.691 8.08 353.211 8.08C351.431 8.08 350.411 9.62 350.411 11.92C350.411 14.24 351.391 15.78 353.151 15.78C354.411 15.78 355.151 15.1 355.571 13.9ZM367.725 12.24H360.565C360.585 14.3 361.625 15.78 363.345 15.78C364.945 15.78 365.465 14.94 365.785 14.2H367.565C367.165 15.5 366.065 17.24 363.285 17.24C360.105 17.24 358.805 14.64 358.805 12.04C358.805 9.02 360.325 6.62 363.405 6.62C366.685 6.62 367.745 9.24 367.745 11.4C367.745 11.72 367.745 11.98 367.725 12.24ZM360.625 11.02H365.965C365.945 9.34 365.105 8 363.385 8C361.585 8 360.805 9.24 360.625 11.02Z" fill="black"/>
<path d="M442.585 95.8286V81.9086H444.405V88.7486C445.445 87.6686 448.985 84.1686 451.165 81.9086H453.465L447.485 87.7886L453.765 95.8286H451.525L446.185 88.9686L444.405 90.5886V95.8286H442.585ZM455.272 95.8286V85.6886H457.032V95.8286H455.272ZM457.032 83.3286H455.272V81.1486H457.032V83.3286ZM458.797 87.1086V85.6886H460.557V82.6886H462.297V85.6886H464.537V87.1086H462.297V93.0486C462.297 94.0486 462.537 94.5486 463.457 94.5486C463.697 94.5486 464.057 94.5286 464.337 94.4686V95.7886C463.917 95.9486 463.317 95.9686 462.817 95.9686C461.237 95.9686 460.557 95.1486 460.557 93.4686V87.1086H458.797ZM472.607 92.7286H474.347C473.927 94.4686 472.747 96.0686 470.167 96.0686C467.367 96.0686 465.647 94.0686 465.647 90.8086C465.647 87.9486 467.267 85.4486 470.287 85.4486C473.207 85.4486 474.227 87.5286 474.347 88.8286H472.607C472.367 87.8086 471.727 86.9086 470.247 86.9086C468.467 86.9086 467.447 88.4486 467.447 90.7486C467.447 93.0686 468.427 94.6086 470.187 94.6086C471.447 94.6086 472.187 93.9286 472.607 92.7286ZM476.464 81.1486H478.224V87.1886C478.724 86.2886 479.664 85.4486 481.384 85.4486C483.004 85.4486 484.804 86.3286 484.804 89.3486V95.8286H483.044V89.6486C483.044 87.9286 482.324 86.9686 480.844 86.9686C479.024 86.9686 478.224 88.1686 478.224 90.2886V95.8286H476.464V81.1486ZM495.992 91.0686H488.832C488.852 93.1286 489.892 94.6086 491.612 94.6086C493.212 94.6086 493.732 93.7686 494.052 93.0286H495.832C495.432 94.3286 494.332 96.0686 491.552 96.0686C488.372 96.0686 487.072 93.4686 487.072 90.8686C487.072 87.8486 488.592 85.4486 491.672 85.4486C494.952 85.4486 496.012 88.0686 496.012 90.2286C496.012 90.5486 496.012 90.8086 495.992 91.0686ZM488.892 89.8486H494.232C494.212 88.1686 493.372 86.8286 491.652 86.8286C489.852 86.8286 489.072 88.0686 488.892 89.8486ZM498.261 95.8286V88.2486C498.261 87.3686 498.261 86.4686 498.241 85.6886H499.941C500.001 85.9886 500.021 87.0486 500.021 87.3486C500.421 86.4886 501.241 85.4486 503.201 85.4486C505.121 85.4486 506.601 86.6086 506.601 89.3086V95.8286H504.841V89.5286C504.841 87.9886 504.241 86.9686 502.701 86.9686C500.781 86.9686 500.021 88.4286 500.021 90.4686V95.8286H498.261Z" fill="black"/>
<line x1="1.25" y1="5.31445" x2="1.25002" y2="358.931" stroke="#B0CDAF" stroke-width="2.5"/>
<line x1="105.713" y1="324.542" x2="105.713" y2="360.228" stroke="#B0CDAF" stroke-width="2.5"/>
<line x1="205.327" y1="251.766" x2="205.327" y2="324.825" stroke="#B0CDAF" stroke-width="2.5"/>
<line x1="146.88" y1="301.933" x2="146.88" y2="324.825" stroke="#B0CDAF" stroke-width="2.5"/>
<line x1="146.88" y1="203.548" x2="146.88" y2="257.611" stroke="#B0CDAF" stroke-width="2.5"/>
<line x1="217.017" y1="191.371" x2="217.017" y2="203.06" stroke="#B0CDAF" stroke-width="2.5"/>
<line x1="487.82" y1="185.039" x2="487.82" y2="262.968" stroke="#B0CDAF" stroke-width="2.5"/>
<line x1="559.25" y1="5.31445" x2="559.25" y2="133.135" stroke="#B0CDAF" stroke-width="2.5"/>
<path d="M487.057 185.039C487.057 185.039 497.015 160.693 515.339 148.827C533.663 136.961 560.077 132.675 557.505 132.935" stroke="#B0CDAF" stroke-width="2.5"/>
<line x1="361.884" y1="36.6982" x2="557.681" y2="36.6982" stroke="#B0CDAF" stroke-width="2.5"/>
<line x1="106.409" y1="360.181" x2="-0.0001297" y2="360.181" stroke="#B0CDAF" stroke-width="2.5"/>
<line x1="154.397" y1="203.336" x2="1.46158" y2="203.336" stroke="#B0CDAF" stroke-width="2.5"/>
<line x1="215.767" y1="203.336" x2="203.103" y2="203.336" stroke="#B0CDAF" stroke-width="2.5"/>
<line x1="76.9551" y1="39.1982" x2="7.62939e-05" y2="39.1982" stroke="#B0CDAF" stroke-width="2.5"/>
<line x1="252.296" y1="39.1982" x2="125.174" y2="39.1982" stroke="#B0CDAF" stroke-width="2.5"/>
<line x1="217.017" y1="37.9482" x2="217.017" y2="148.997" stroke="#B0CDAF" stroke-width="2.5"/>
<line x1="489.979" y1="326.074" x2="104.717" y2="326.074" stroke="#B0CDAF" stroke-width="2.5"/>
</svg>
